<svg xmlns="http://www.w3.org/2000/svg" viewBox="0 0 1106.82 1270.59"><defs><style>.f4bf5cf9-ab02-44ec-a367-4fe1332cf020{fill:#da8350;}.e6f9aabd-bfba-49c5-af34-43116e74108f{fill:#1c96ab;}</style></defs><title>logo</title><g id="acc027c7-149e-43dc-9d4f-76b28f9449f2" data-name="1"><polygon class="f4bf5cf9-ab02-44ec-a367-4fe1332cf020" points="550.82 112.97 1006.35 377.21 1006.59 906.15 550.12 1157.44 101.18 902.85 101.18 378.62 0 323.09 0 594.15 0 954.85 550.45 1270.59 1106.82 955.56 1106.82 316.03 553.41 0 0.01 323.08 0.06 323.2 2.97 325.16 100.77 379.15 550.82 112.97"/></g><g id="b8668597-ade2-483c-96ed-4bf68d6fb8d1" data-name="2"><path class="e6f9aabd-bfba-49c5-af34-43116e74108f" d="M400.59,597.5c64.9,34.42,191.76,106.82,220.69,123.67,0,0,.07,0,.1,0a.15.15,0,0,1,0,.11c0,.1-.1,94.31-.38,287-38.68-21.73-65.51-36.63-104.35-58.09-48.43-26.75-96.75-53.27-115.6-63.33q-17.82,54.23-35.65,108.44c7.44,3.77,21.73,11.12,39.3,21,23.49,13.19,250.89,142,277.44,144.33a66,66,0,0,0,27.31-3.62h0c.37-.14.91-.33,1.54-.59a39.53,39.53,0,0,0,11.74-7.18c2.2-2,7.2-6.46,9.52-13.76,1.27-4,1.53-8.14,1.81-12.75.16-2.54.15-4.5.17-5.34.23-14.39-.84-340.77-.48-356.62,0-.12,0-1,0-1.93.07-3.21.22-9.91.38-18.23.19-10.14.32-19.61.52-33.37,0-2.75.12-9.27,0-17.88-.05-3.27-.11-5.83-.12-6.12-.69-22.4-39.88-43.88-39.88-43.88h0c-65.82-39.1-120.48-71.49-163.52-97.17C497.52,522.13,462.71,504,429,484.06c-2.68-1.59-11.91-7.08-24.88-13.15-8.37-3.91-16.37-7.65-24.53-10.06-10.76-3.17-32.61-9.6-53.59,1.36-15.56,8.12-28.23,24.55-29.76,41.41a40,40,0,0,0-.15,4.87c0,.3,0,.52,0,.54.1,2-.51,165.61-1.53,422.26a53.27,53.27,0,0,0,6.56,21,52.29,52.29,0,0,0,5.32,7.72c8,9.68,18,13.28,27.19,18.27,13.15,7.16,24.06,13,31.75,17.11q17.82-54.21,35.65-108.44Z" transform="translate(-156.09 -79.5)"/></g></svg>